<svg width="120" height="120" viewBox="0 0 120 120" fill="none" xmlns="http://www.w3.org/2000/svg">
<path d="M59.5379 27.8125C31.9251 27.8125 9.53906 42.3069 9.53906 60.1853C9.53906 78.0644 31.9251 92.5581 59.5379 92.5581C87.153 92.5581 109.539 78.0644 109.539 60.1853C109.539 42.3074 87.153 27.8125 59.5379 27.8125Z" fill="black"/>
<path d="M71.1593 41.8314C72.36 41.9892 76.485 42.7917 77.8712 43.339L64.0077 60.1001L48.288 41.7972C49.5398 41.4738 53.1193 41.1104 54.7342 41.0191C54.6033 39.6928 53.8851 33.0142 53.8851 33.0142C45.2427 33.3093 30.9309 37.0335 22.2414 44.6774C22.8585 45.4174 26.0101 49.4862 27.0787 50.75C28.4171 49.4637 31.4257 47.424 32.4202 46.9678L51.8211 68.97C51.8211 68.97 51.7874 78.3911 51.8041 78.856C50.3151 78.7253 46.1476 78.1171 45.1236 77.7965C44.9293 78.9888 43.8064 84.4454 43.6116 85.3909C55.4329 88.2207 68.294 87.349 76.5649 85.135C75.728 81.4643 74.9534 79.1781 74.6741 77.7022C73.055 78.0642 68.5392 78.7715 67.6555 78.8372L67.6678 68.9781L86.087 46.5336C86.087 46.5336 89.9417 48.5994 91.976 50.6432C92.9349 49.4462 94.9971 46.4966 96.4913 44.5768C89.6066 39.0287 81.0548 35.4833 72.0944 33.9827C71.9653 35.9503 71.3184 40.4744 71.1603 41.8309L71.1593 41.8314Z" fill="white"/>
</svg>
