<svg width="88" height="65" viewBox="0 0 88 65" fill="none" xmlns="http://www.w3.org/2000/svg">
<path fill-rule="evenodd" clip-rule="evenodd" d="M8.31742 24.7992C7.98072 24.8915 7.9853 24.8517 7.9853 27.6815V30.3736L7.56092 30.0072C6.55077 29.1351 5.94971 28.8735 4.84722 28.8266C3.24907 28.7584 2.06791 29.2948 1.22979 30.4692C0.520311 31.4635 0.181993 32.6369 0.112396 34.3445C-0.0463564 38.2407 1.547 40.5406 4.4058 40.5416C5.61309 40.5421 6.87314 39.9619 7.8337 38.9633C7.97364 38.8179 8.11475 38.6989 8.14737 38.6989C8.17999 38.6989 8.20671 39.027 8.20671 39.4279C8.20671 40.007 8.23106 40.1771 8.32516 40.2552C8.48621 40.3889 9.312 40.4328 9.63858 40.325L9.9042 40.2373V32.6134C9.9042 25.7692 9.89232 24.9795 9.78811 24.893C9.66781 24.7932 8.58997 24.7244 8.31742 24.7992ZM80.1262 24.894C80.0436 24.9274 79.9391 25 79.894 25.0553C79.8488 25.1106 78.9909 27.4309 77.9873 30.2114C74.0874 41.0167 74.4388 39.999 74.5496 40.1694C74.7189 40.4294 76.2516 40.3966 76.4677 40.1284C76.5328 40.0474 76.8685 39.145 77.2135 38.1229L77.8409 36.2646L84.2799 36.2634L84.7792 37.6841C85.5907 39.9935 85.6915 40.2359 85.8632 40.2903C86.1292 40.3748 87.431 40.3499 87.6045 40.257C87.6968 40.2076 87.7678 40.0989 87.7682 40.0063C87.7686 39.9164 86.5654 36.5085 85.0944 32.4332C81.9969 23.8517 82.5047 24.8206 81.109 24.8284C80.6511 24.831 80.2088 24.8605 80.1262 24.894ZM84.7938 24.978C84.4699 25.1489 84.2541 25.4658 84.1856 25.8713C84.1485 26.0907 84.1772 26.2357 84.3103 26.501C84.5657 27.01 84.7972 27.1486 85.3927 27.1486C85.9522 27.1486 86.2774 26.979 86.484 26.5793C86.6502 26.258 86.6294 25.6852 86.4404 25.3795C86.1297 24.8767 85.3472 24.6859 84.7938 24.978ZM14.909 25.0636C14.8579 25.155 14.8162 25.4455 14.8162 25.7094C14.8162 25.9732 14.8579 26.2638 14.909 26.3552L15.0018 26.5212H18.2745C21.2287 26.5212 21.5571 26.5093 21.6485 26.3992C21.715 26.3191 21.7498 26.0821 21.7498 25.7094C21.7498 25.3367 21.715 25.0997 21.6485 25.0196C21.5571 24.9094 21.2287 24.8975 18.2745 24.8975H15.0018L14.909 25.0636ZM24.3291 25.1535C24.1923 25.481 24.1923 26.0115 24.3291 26.3391L24.4361 26.595H28.9457V33.3112C28.9457 39.929 28.9478 40.0295 29.0933 40.175C29.1956 40.2773 29.3485 40.3255 29.5914 40.3321C30.2728 40.3506 30.682 40.3088 30.8461 40.2039L31.0122 40.0978V26.595H35.5108L35.6313 26.4111C35.7792 26.1855 35.7547 25.2091 35.5965 25.0185C35.5051 24.9084 34.9997 24.8975 29.9661 24.8975H24.4361L24.3291 25.1535ZM38.1712 25.329V39.8868L38.3627 40.0643C38.4705 40.1642 38.6883 40.2612 38.8609 40.2861C39.0295 40.3103 40.8059 40.3202 42.8083 40.308C46.2457 40.2869 46.4548 40.2781 46.5486 40.1497C46.7693 39.8477 46.7693 39.0262 46.5486 38.7241C46.4552 38.5963 46.2608 38.5869 43.3065 38.5674L40.1639 38.5467V33.0898H42.7757C45.911 33.0898 45.7361 33.14 45.7361 32.2409C45.7361 31.3421 45.9111 31.3923 42.7757 31.3923H40.1639V26.595H43.2267C46.8362 26.595 46.5848 26.6573 46.5848 25.7627C46.5848 25.396 46.5484 25.1736 46.4699 25.0616L46.3551 24.8975H38.6026L38.1712 25.329ZM50.1289 24.9888C49.7488 25.1884 49.7607 24.9392 49.7595 32.7671C49.7585 39.3476 49.7701 40.0928 49.8751 40.1799C50.1688 40.4237 51.5431 40.3847 51.7313 40.1272C51.8036 40.0283 51.8249 39.2465 51.8249 36.6921V33.385L52.5076 33.3865C54.2176 33.3901 54.9544 33.7022 55.6187 34.704C55.9844 35.2557 56.3107 35.9988 57.2552 38.4315C57.7225 39.6352 57.9581 40.151 58.0756 40.228C58.1907 40.3034 58.4475 40.3358 58.9258 40.3353C59.7782 40.3344 60.0172 40.255 60.0172 39.9725C60.0172 39.7407 58.4027 35.6863 57.9594 34.8048C57.4996 33.8906 57.037 33.3381 56.4168 32.9622L56.1744 32.8153L56.7858 32.5208C58.3685 31.7581 59.0938 30.6229 59.0866 28.9199C59.0796 27.2918 58.3865 26.1353 57.0311 25.4899C55.9478 24.9741 55.7834 24.9514 52.8951 24.9204C50.8728 24.8987 50.2722 24.9136 50.1289 24.9888ZM62.8217 25.329V40.1787L63.0247 40.257C63.3534 40.3838 64.4171 40.3581 64.6309 40.2181L64.813 40.0987L64.8513 33.4219L65.5136 33.4004C66.2967 33.3748 67.081 33.4836 67.5227 33.679C67.6975 33.7563 68.0204 33.9898 68.2403 34.1977C68.7672 34.696 69.1106 35.3882 70.1255 37.9978C70.7255 39.5405 70.9758 40.0995 71.1128 40.203C71.3663 40.3947 72.6175 40.4011 72.9058 40.2122C73.1642 40.0429 73.1478 39.9811 72.2728 37.8143C71.2263 35.2229 71.0444 34.8138 70.6738 34.2181C70.3534 33.703 69.6039 32.9422 69.4168 32.9422C69.137 32.9422 69.3173 32.7711 69.8881 32.4951C70.3873 32.2538 70.6529 32.0635 71.0559 31.6584C71.8475 30.8625 72.1187 30.1736 72.1201 28.9538C72.1217 27.733 71.7657 26.8223 71.0166 26.1307C70.4932 25.6474 70.0441 25.4036 69.2041 25.1471C68.5447 24.9457 68.5288 24.9445 65.9038 24.9147L63.2659 24.8848L62.8217 25.329ZM86.0515 25.3717C86.2489 25.587 86.2914 25.6931 86.2914 25.9703C86.2914 26.5736 85.9434 26.964 85.4058 26.964C84.8201 26.964 84.3631 26.3665 84.5155 25.8002C84.6099 25.4497 84.719 25.3044 84.9998 25.1555C85.3482 24.9707 85.762 25.0557 86.0515 25.3717ZM84.9629 26.0046C84.9629 26.4802 84.9845 26.595 85.0736 26.595C85.1475 26.595 85.1843 26.5212 85.1843 26.3736C85.1843 26.1983 85.2165 26.1522 85.3384 26.1522C85.4417 26.1522 85.5199 26.225 85.576 26.3736C85.6257 26.5054 85.7127 26.595 85.7909 26.595C85.9521 26.595 85.9629 26.3905 85.813 26.1766C85.7165 26.0386 85.7165 26.0098 85.813 25.9297C85.9661 25.8027 85.9493 25.5813 85.7797 25.4906C85.7011 25.4486 85.4853 25.4142 85.2999 25.4142H84.9629V26.0046ZM85.5903 25.7832C85.5903 25.8491 85.5081 25.9033 85.3873 25.9172C85.2221 25.9363 85.1843 25.9114 85.1843 25.7832C85.1843 25.655 85.2221 25.6301 85.3873 25.6492C85.5081 25.663 85.5903 25.7173 85.5903 25.7832ZM55.4691 26.8129C56.0635 27.0442 56.5541 27.5337 56.7671 28.108C56.9888 28.706 56.9612 29.7772 56.7109 30.2926C56.3766 30.9805 55.6112 31.5203 54.7417 31.681C54.5027 31.7251 53.7486 31.7613 53.066 31.7613H51.8249V29.1905C51.8249 27.7765 51.8386 26.6058 51.8555 26.5889C51.8722 26.572 52.5946 26.5775 53.4607 26.6012C54.8642 26.6395 55.0826 26.6625 55.4691 26.8129ZM68.0028 26.6769C68.5308 26.7874 69.2058 27.1542 69.4723 27.4754C69.9901 28.1 70.128 29.4248 69.7627 30.2651C69.4638 30.9526 68.675 31.5153 67.7695 31.6869C67.5539 31.7279 66.8007 31.7613 66.096 31.7613H64.8144V26.595H66.2131C66.9824 26.595 67.7877 26.6319 68.0028 26.6769ZM82.4075 30.8019C83.1239 32.8518 83.7097 34.5539 83.7092 34.5843C83.7087 34.6147 82.5126 34.6397 81.0513 34.6397C79.59 34.6397 78.3944 34.6156 78.3944 34.5862C78.3944 34.4293 81.0186 26.9765 81.058 27.0215C81.0837 27.0508 81.691 28.752 82.4075 30.8019ZM17.3459 28.6583C16.1517 28.8771 15.3145 29.2969 14.55 30.0606C13.3928 31.2165 12.8406 32.9575 12.9569 35.0825C13.089 37.4956 13.9795 39.0863 15.624 39.8467C16.5413 40.2708 17.7773 40.4521 18.8875 40.3255C21.9295 39.9784 23.6318 37.8324 23.6318 34.3445C23.6318 32.3822 23.1638 31.0008 22.1557 29.9868C21.2113 29.0369 20.2635 28.672 18.6131 28.6227C18.1057 28.6076 17.5355 28.6235 17.3459 28.6583ZM19.1566 30.3213C20.3687 30.5781 21.1384 31.4304 21.4645 32.8765C21.6353 33.6339 21.6356 35.3782 21.465 36.0741C21.1799 37.2375 20.4887 38.1293 19.5936 38.4888C19.2269 38.636 19.0363 38.6603 18.2441 38.6611C17.3651 38.6619 17.2988 38.6512 16.8418 38.4342C16.0126 38.0404 15.4645 37.3351 15.1736 36.2876C14.9878 35.6185 14.9489 33.8502 15.1032 33.0885C15.5391 30.937 17.0842 29.8823 19.1566 30.3213ZM5.72962 30.6287C6.21887 30.8013 6.66745 31.1336 7.34232 31.8232L7.9853 32.4803V36.757L7.60565 37.1928C7.06481 37.8137 6.39674 38.3756 5.92188 38.6087C5.38326 38.8732 4.46101 38.9299 3.93892 38.7306C3.12441 38.4195 2.47339 37.4587 2.25426 36.2442C2.10511 35.4178 2.10835 33.7963 2.26054 33.0898C2.70011 31.0493 4.10232 30.0546 5.72962 30.6287Z" fill="black"/>
</svg>
