<svg width="121" height="120" viewBox="0 0 121 120" fill="none" xmlns="http://www.w3.org/2000/svg">
<path d="M74.31 37.6023C68.7004 34.2313 62.8085 33.8048 57.0784 35.3902C46.5301 38.3082 39.7969 45.4209 38.2584 56.3281C36.7759 66.8324 41.1264 75.1893 49.9334 81.0547C58.0109 86.4348 69.9918 85.8582 77.7574 79.9252C80.1793 78.0739 82.4816 78.2955 84.6642 80.5899C86.2938 82.2931 87.841 84.1139 89.653 85.5994C91.9004 87.4437 91.0738 88.6527 89.2942 90.1235C83.464 94.9446 76.9338 98.3274 69.3976 99.2364C57.9021 100.625 47.286 98.4833 38.029 90.9559C24.945 80.3134 19.8591 63.5349 25.0156 47.2682C33.6844 19.9383 68.2386 10.5519 89.5618 29.7484C91.4679 31.4662 93.2535 33.3194 95.1537 35.0461C96.3156 36.1021 96.5833 36.9375 95.2978 38.2053C86.3732 47.0064 77.5721 55.9369 68.5916 64.6791C64.9411 68.2355 60.7465 68.0737 57.5138 64.7203C54.7634 61.867 55.0929 56.9988 58.3315 53.7366C62.9409 49.0949 67.6003 44.5031 72.2273 39.882C72.8892 39.2201 73.4922 38.4995 74.307 37.6023H74.31Z" fill="black"/>
</svg>
