<svg width="40" height="34" viewBox="0 0 40 34" fill="none" xmlns="http://www.w3.org/2000/svg">
<path d="M0 33.1257V8.56788H3.60656L3.7541 10.3876C3.99454 10.0925 4.25683 9.82473 4.54098 9.58429C4.82514 9.34385 5.13115 9.1362 5.45902 8.96133C5.88525 8.73182 6.35519 8.55695 6.86885 8.43673C7.38251 8.30558 7.92896 8.24 8.5082 8.24C9.64481 8.24 10.6448 8.4586 11.5082 8.89576C12.3825 9.33293 13.1148 9.95042 13.7049 10.7482C14.2842 11.5461 14.7268 12.5024 15.0328 13.6172C15.3388 14.721 15.4918 15.9396 15.4918 17.273V17.6173C15.4918 18.896 15.3388 20.0873 15.0328 21.1911C14.7377 22.295 14.2951 23.2458 13.7049 24.0436C13.1148 24.8524 12.388 25.4863 11.5246 25.9453C10.6612 26.4043 9.67213 26.6338 8.55738 26.6338C7.9235 26.6338 7.3388 26.5683 6.80328 26.4371C6.27869 26.306 5.79235 26.1147 5.34426 25.8633C5.08197 25.7103 4.8306 25.5355 4.59016 25.3387C4.34973 25.142 4.12568 24.9289 3.91803 24.6994V33.1257H0ZM11.5738 17.273C11.5738 16.4752 11.4918 15.7265 11.3279 15.027C11.1749 14.3166 10.9344 13.6991 10.6066 13.1745C10.2678 12.6499 9.83607 12.2346 9.31148 11.9286C8.78689 11.6226 8.15847 11.4696 7.42623 11.4696C7.02186 11.4696 6.64481 11.5133 6.29508 11.6007C5.94536 11.6882 5.63388 11.8138 5.36066 11.9778C5.04372 12.1526 4.76503 12.3712 4.52459 12.6335C4.29508 12.8958 4.0929 13.1909 3.91803 13.5188V21.4042C4.07104 21.7102 4.25683 21.9889 4.47541 22.2403C4.69399 22.4917 4.94536 22.7103 5.22951 22.8961C5.52459 23.0709 5.85792 23.213 6.22951 23.3223C6.60109 23.4207 7.01093 23.4698 7.45902 23.4698C8.19126 23.4698 8.81421 23.3168 9.32787 23.0108C9.85246 22.6939 10.2787 22.2676 10.6066 21.7321C10.9454 21.1856 11.1913 20.5627 11.3443 19.8632C11.4973 19.1528 11.5738 18.4042 11.5738 17.6173V17.273Z" fill="black"/>
<path d="M24.5082 33.3658V8.80849H28.1148L28.2623 10.6282C28.5027 10.3331 28.765 10.0653 29.0492 9.82487C29.3333 9.58443 29.6393 9.37679 29.9672 9.20193C30.3934 8.97241 30.8634 8.79755 31.377 8.67733C31.8907 8.54618 32.4372 8.48061 33.0164 8.48061C34.153 8.48061 35.153 8.69918 36.0164 9.13635C36.8907 9.57352 37.623 10.191 38.2131 10.9888C38.7924 11.7866 39.235 12.7429 39.541 13.8577C39.847 14.9615 40 16.18 40 17.5134V17.8577C40 19.1364 39.847 20.3276 39.541 21.4314C39.2459 22.5353 38.8033 23.4861 38.2131 24.2839C37.623 25.0927 36.8962 25.7265 36.0328 26.1855C35.1694 26.6446 34.1803 26.8741 33.0656 26.8741C32.4317 26.8741 31.847 26.8085 31.3115 26.6773C30.7869 26.5462 30.3005 26.3549 29.8525 26.1036C29.5902 25.9506 29.3388 25.7757 29.0984 25.579C28.8579 25.3822 28.6339 25.1691 28.4262 24.9396V33.3658H24.5082ZM36.082 17.5134C36.082 16.7156 36 15.967 35.8361 15.2675C35.6831 14.5571 35.4426 13.9396 35.1148 13.415C34.776 12.8904 34.3443 12.4752 33.8197 12.1691C33.2951 11.8631 32.6667 11.7101 31.9344 11.7101C31.5301 11.7101 31.153 11.7538 30.8033 11.8413C30.4536 11.9287 30.1421 12.0544 29.8689 12.2183C29.5519 12.3932 29.2732 12.6118 29.0328 12.8741C28.8033 13.1364 28.6011 13.4314 28.4262 13.7593V21.6445C28.5792 21.9506 28.765 22.2292 28.9836 22.4806C29.2022 22.732 29.4536 22.9506 29.7377 23.1364C30.0328 23.3112 30.3661 23.4533 30.7377 23.5626C31.1093 23.6609 31.5191 23.7101 31.9672 23.7101C32.6995 23.7101 33.3224 23.5571 33.8361 23.2511C34.3607 22.9342 34.7869 22.5079 35.1148 21.9724C35.4536 21.426 35.6995 20.803 35.8525 20.1036C36.0055 19.3932 36.082 18.6446 36.082 17.8577V17.5134Z" fill="black"/>
<path d="M20.9841 5.5C22.3584 4.12572 22.9319 2 22.9319 1.04909C22.9319 0.751831 22.6957 0.51563 22.3984 0.51563C21.4841 0.51563 19.3584 1.12572 17.9841 2.5C16.4714 4.01275 16.402 5.10112 17.3742 6.07334C18.3464 7.04556 19.4714 7.01275 20.9841 5.5Z" fill="black"/>
<path d="M17.5733 9.95238C17.5733 9.7065 17.7441 9.49362 17.9841 9.44028L21.394 8.62425C21.7216 8.55144 22.0324 8.80074 22.0324 9.13635V26.5774C22.0324 26.8671 21.7975 27.102 21.5078 27.102H18.0979C17.8082 27.102 17.5733 26.8671 17.5733 26.5774V9.95238Z" fill="black"/>
</svg>
