<svg width="56" height="44" viewBox="0 0 56 44" fill="none" xmlns="http://www.w3.org/2000/svg">
<path d="M0 43.7073V10.2943H4.91134L5.11226 12.7701C5.43968 12.3686 5.79687 12.0043 6.18382 11.6772C6.57078 11.35 6.9875 11.0675 7.43398 10.8296C8.01441 10.5173 8.65438 10.2794 9.35387 10.1158C10.0534 9.93739 10.7975 9.84817 11.5863 9.84817C13.1341 9.84817 14.4959 10.1456 15.6716 10.7404C16.8623 11.3352 17.8594 12.1753 18.6631 13.2608C19.4519 14.3464 20.0546 15.6475 20.4714 17.1642C20.8881 18.6661 21.0964 20.3241 21.0964 22.1383V22.6067C21.0964 24.3465 20.8881 25.9673 20.4714 27.4692C20.0695 28.9711 19.4668 30.2648 18.6631 31.3503C17.8594 32.4507 16.8697 33.3131 15.694 33.9377C14.5182 34.5622 13.1713 34.8745 11.6533 34.8745C10.7901 34.8745 9.99383 34.7853 9.26457 34.6068C8.5502 34.4284 7.88791 34.1682 7.27771 33.8262C6.92053 33.618 6.57822 33.3801 6.2508 33.1124C5.92337 32.8447 5.61828 32.5548 5.3355 32.2425V43.7073H0ZM15.7609 22.1383C15.7609 21.0528 15.6493 20.0342 15.4261 19.0825C15.2177 18.1159 14.8903 17.2758 14.4438 16.562C13.9824 15.8482 13.3946 15.2832 12.6802 14.8668C11.9658 14.4505 11.11 14.2423 10.1129 14.2423C9.56223 14.2423 9.04877 14.3018 8.57252 14.4207C8.09627 14.5397 7.67211 14.7107 7.30004 14.9337C6.86844 15.1717 6.48892 15.4691 6.1615 15.8259C5.84896 16.1828 5.57363 16.5843 5.3355 17.0304V27.7592C5.54386 28.1755 5.79687 28.5547 6.09453 28.8967C6.39218 29.2387 6.73449 29.5361 7.12144 29.7889C7.52328 30.0269 7.97721 30.2202 8.48322 30.3689C8.98924 30.5027 9.54735 30.5696 10.1575 30.5696C11.1547 30.5696 12.003 30.3614 12.7025 29.9451C13.4169 29.5138 13.9973 28.9339 14.4438 28.2053C14.9052 27.4618 15.24 26.6142 15.4484 25.6625C15.6568 24.6959 15.7609 23.6773 15.7609 22.6067V22.1383Z" fill="white"/>
<path d="M34.9036 43.6618V10.2487H39.8149L40.0158 12.7246C40.3432 12.3231 40.7004 11.9588 41.0874 11.6316C41.4743 11.3045 41.8911 11.022 42.3375 10.7841C42.918 10.4718 43.5579 10.2339 44.2574 10.0703C44.9569 9.89185 45.7011 9.80263 46.4899 9.80263C48.0377 9.80263 49.3995 10.1 50.5752 10.6948C51.7658 11.2896 52.763 12.1298 53.5667 13.2153C54.3554 14.3008 54.9582 15.602 55.3749 17.1187C55.7916 18.6206 56 20.2786 56 22.0927V22.5611C56 24.3009 55.7916 25.9218 55.3749 27.4237C54.9731 28.9255 54.3703 30.2192 53.5667 31.3047C52.763 32.4051 51.7733 33.2676 50.5975 33.8921C49.4218 34.5167 48.0749 34.829 46.5568 34.829C45.6936 34.829 44.8974 34.7397 44.1681 34.5613C43.4538 34.3828 42.7915 34.1226 42.1813 33.7806C41.8241 33.5724 41.4818 33.3345 41.1544 33.0669C40.8269 32.7992 40.5218 32.5092 40.2391 32.1969V43.6618H34.9036ZM50.6645 22.0927C50.6645 21.0072 50.5529 19.9886 50.3296 19.0369C50.1213 18.0704 49.7938 17.2302 49.3474 16.5165C48.886 15.8027 48.2981 15.2376 47.5837 14.8213C46.8694 14.4049 46.0136 14.1967 45.0165 14.1967C44.4658 14.1967 43.9523 14.2562 43.4761 14.3752C42.9998 14.4941 42.5757 14.6651 42.2036 14.8882C41.772 15.1261 41.3925 15.4235 41.0651 15.7804C40.7525 16.1373 40.4772 16.5388 40.2391 16.9849V27.7136C40.4474 28.13 40.7004 28.5092 40.9981 28.8512C41.2957 29.1932 41.638 29.4906 42.025 29.7434C42.4268 29.9813 42.8808 30.1746 43.3868 30.3233C43.8928 30.4572 44.4509 30.5241 45.0611 30.5241C46.0583 30.5241 46.9066 30.3159 47.6061 29.8995C48.3204 29.4683 48.9009 28.8884 49.3474 28.1597C49.8087 27.4162 50.1436 26.5686 50.352 25.6169C50.5603 24.6504 50.6645 23.6318 50.6645 22.5611V22.0927Z" fill="white"/>
<path d="M30.3558 7.46228C32.2272 5.59247 32.4158 3.17372 32.4717 0.726026C32.4809 0.321681 32.1499 -0.00903669 31.7452 0.000188429C29.2954 0.0560326 26.8746 0.244481 25.0032 2.1143C22.9432 4.17253 23.5794 6.23929 24.9033 7.56207C26.2272 8.88486 28.2958 9.52051 30.3558 7.46228Z" fill="#CCDF50"/>
<path d="M24.646 12.8738C24.646 12.5393 24.8786 12.2496 25.2054 12.1771L29.7703 11.0668C30.2164 10.9677 30.6396 11.3069 30.6396 11.7635V34.4279C30.6396 34.8221 30.3198 35.1417 29.9252 35.1417H25.3604C24.9658 35.1417 24.646 34.8221 24.646 34.4279V12.8738Z" fill="white"/>
</svg>
