<svg width="101" height="78" viewBox="0 0 101 78" fill="none" xmlns="http://www.w3.org/2000/svg">
<path d="M0.332031 77.6255V18.4561H9.02179L9.37728 22.8405C9.9566 22.1295 10.5886 21.4844 11.2732 20.9051C11.9579 20.3257 12.6952 19.8254 13.4852 19.4041C14.5121 18.8511 15.6444 18.4298 16.8821 18.1401C18.1197 17.8242 19.4363 17.6662 20.832 17.6662C23.5706 17.6662 25.98 18.1928 28.0603 19.2461C30.1669 20.2994 31.9312 21.7872 33.3531 23.7095C34.7488 25.6318 35.8152 27.9359 36.5525 30.6218C37.2899 33.2814 37.6585 36.2175 37.6585 39.4301V40.2595C37.6585 43.3405 37.2899 46.2107 36.5525 48.8703C35.8416 51.5299 34.7751 53.8208 33.3531 55.7431C31.9312 57.6917 30.18 59.219 28.0998 60.325C26.0195 61.431 23.6364 61.9839 20.9505 61.9839C19.4232 61.9839 18.0144 61.8259 16.7241 61.5099C15.4601 61.194 14.2883 60.7331 13.2087 60.1275C12.5767 59.7588 11.971 59.3375 11.3917 58.8635C10.8124 58.3895 10.2726 57.876 9.77227 57.3231V77.6255H0.332031ZM28.2183 39.4301C28.2183 37.5078 28.0208 35.704 27.6258 34.0187C27.2571 32.3071 26.6778 30.8193 25.8878 29.5553C25.0715 28.2914 24.0314 27.2907 22.7674 26.5534C21.5035 25.8161 19.9893 25.4474 18.225 25.4474C17.2507 25.4474 16.3423 25.5528 15.4996 25.7634C14.657 25.9741 13.9065 26.2769 13.2482 26.6719C12.4845 27.0932 11.813 27.6199 11.2337 28.2519C10.6807 28.8838 10.1936 29.5948 9.77227 30.3848V49.3838C10.1409 50.1211 10.5886 50.7926 11.1152 51.3982C11.6419 52.0039 12.2475 52.5305 12.9322 52.9782C13.6432 53.3995 14.4463 53.7418 15.3416 54.0052C16.2369 54.2421 17.2244 54.3606 18.304 54.3606C20.0683 54.3606 21.5693 53.992 22.8069 53.2547C24.0709 52.491 25.0979 51.4641 25.8878 50.1738C26.7041 48.8571 27.2966 47.3562 27.6653 45.6709C28.0339 43.9593 28.2183 42.1555 28.2183 40.2595V39.4301Z" fill="#1757DA"/>
<path d="M62.0878 77.5449V18.3755H70.7775L71.133 22.7599C71.7124 22.0489 72.3444 21.4037 73.029 20.8244C73.7136 20.2451 74.451 19.7448 75.2409 19.3235C76.2679 18.7705 77.4002 18.3492 78.6378 18.0595C79.8755 17.7435 81.1921 17.5855 82.5877 17.5855C85.3263 17.5855 87.7358 18.1122 89.816 19.1655C91.9226 20.2188 93.6869 21.7066 95.1089 23.6288C96.5045 25.5511 97.571 27.8552 98.3083 30.5412C99.0456 33.2007 99.4143 36.1368 99.4143 39.3494V40.1789C99.4143 43.2598 99.0456 46.1301 98.3083 48.7896C97.5973 51.4492 96.5309 53.7402 95.1089 55.6625C93.6869 57.6111 91.9358 59.1384 89.8555 60.2443C87.7753 61.3503 85.3922 61.9033 82.7062 61.9033C81.1789 61.9033 79.7701 61.7453 78.4798 61.4293C77.2159 61.1133 76.0441 60.6525 74.9644 60.0468C74.3325 59.6782 73.7268 59.2569 73.1475 58.7829C72.5682 58.3089 72.0284 57.7954 71.528 57.2424V77.5449H62.0878ZM89.974 39.3494C89.974 37.4271 89.7765 35.6233 89.3816 33.9381C89.0129 32.2264 88.4336 30.7386 87.6436 29.4747C86.8273 28.2107 85.7871 27.2101 84.5232 26.4728C83.2592 25.7355 81.7451 25.3668 79.9808 25.3668C79.0065 25.3668 78.098 25.4721 77.2554 25.6828C76.4127 25.8934 75.6623 26.1963 75.0039 26.5913C74.2403 27.0126 73.5688 27.5392 72.9895 28.1712C72.4365 28.8032 71.9494 29.5142 71.528 30.3042V49.3031C71.8967 50.0405 72.3444 50.7119 72.871 51.3176C73.3977 51.9232 74.0033 52.4499 74.688 52.8975C75.3989 53.3189 76.2021 53.6612 77.0974 53.9245C77.9927 54.1615 78.9802 54.28 80.0598 54.28C81.8241 54.28 83.3251 53.9113 84.5627 53.174C85.8266 52.4104 86.8536 51.3834 87.6436 50.0931C88.4599 48.7765 89.0524 47.2755 89.4211 45.5902C89.7897 43.8786 89.974 42.0748 89.974 40.1789V39.3494Z" fill="#1757DA"/>
<path d="M54.0413 13.4411C57.3524 10.13 57.6862 5.84673 57.785 1.51224C57.8014 0.79621 57.2157 0.21056 56.4997 0.226896C52.1652 0.325788 47.882 0.659501 44.5708 3.97066C40.926 7.61547 42.0517 11.2754 44.3941 13.6178C46.7366 15.9603 50.3965 17.0859 54.0413 13.4411Z" fill="#CCDF50"/>
<path d="M43.9388 23.0241C43.9388 22.4317 44.3503 21.9188 44.9286 21.7903L53.0053 19.8241C53.7947 19.6487 54.5435 20.2493 54.5435 21.058V61.1931C54.5435 61.8912 53.9776 62.4571 53.2795 62.4571H45.2028C44.5047 62.4571 43.9388 61.8912 43.9388 61.1931V23.0241Z" fill="#1757DA"/>
</svg>
