<svg width="120" height="120" viewBox="0 0 120 120" fill="none" xmlns="http://www.w3.org/2000/svg">
<path fill-rule="evenodd" clip-rule="evenodd" d="M12.0244 48.8446C12.0244 48.8446 13.9725 49.33 16.8937 50.0604C17.297 50.1574 17.717 50.2627 18.1557 50.3709C18.7085 50.7148 19.3624 51.0961 20.1127 51.4874C21.3019 52.1112 22.7134 52.7535 24.2549 53.3399C25.0244 53.6347 25.8228 53.9263 26.6478 54.1789C27.4682 54.4475 28.3062 54.6945 29.1531 54.9153C29.9988 55.1421 30.8514 55.3384 31.6967 55.5134C32.5408 55.6968 33.3775 55.8423 34.1935 55.9666C35.8287 56.218 37.3746 56.358 38.7234 56.4042C40.0686 56.4549 41.2141 56.4159 42.0272 56.3495C42.8346 56.2783 43.3145 56.1963 43.3145 56.1963C43.3145 56.1963 42.9442 55.8902 42.2745 55.4281C41.6043 54.9716 40.6336 54.3711 39.4445 53.7513C38.2537 53.1247 36.8422 52.482 35.3023 51.8932C34.5312 51.5984 33.7311 51.3108 32.9094 51.0526C32.0886 50.7856 31.2523 50.537 30.4053 50.3134C29.5584 50.0894 28.7058 49.8843 27.8605 49.7125C27.0164 49.5247 26.1809 49.3847 25.365 49.2593C23.7314 49.0051 22.185 48.8647 20.8383 48.8189C19.9852 48.7867 19.232 48.7943 18.5741 48.8201C18.1411 48.6974 17.7227 48.5788 17.3263 48.4665C14.4263 47.6549 12.4937 47.1132 12.4937 47.1132L12.4676 47.1075C12.004 46.9905 11.7409 47.3428 11.6207 47.8222C11.4965 48.3 11.5563 48.7292 12.0244 48.8446Z" fill="black"/>
<path fill-rule="evenodd" clip-rule="evenodd" d="M27.1275 29.3817C27.4697 30.0316 27.8966 30.7753 28.416 31.5897C29.2014 32.8244 30.1828 34.1931 31.3194 35.5823C31.8868 36.274 32.4836 36.9791 33.1244 37.6632C33.7485 38.3667 34.4247 39.0379 35.0883 39.7152C35.7772 40.3724 36.4604 41.0336 37.1712 41.6518C37.8662 42.2784 38.5811 42.8692 39.2879 43.4295C40.6933 44.5483 42.0813 45.516 43.3302 46.2902C44.5752 47.0641 45.6824 47.6432 46.4837 48.0185C47.294 48.3937 47.7885 48.5731 47.7885 48.5731C47.7885 48.5731 47.6072 48.0836 47.2312 47.2877C46.8479 46.4921 46.2601 45.4006 45.4746 44.1687C44.6864 42.9384 43.7063 41.5709 42.5713 40.1817C42.0067 39.486 41.4071 38.7825 40.7695 38.0952C40.1462 37.3933 39.4737 36.7205 38.8052 36.0404C38.1192 35.3848 37.4405 34.7176 36.7296 34.101C36.0334 33.47 35.321 32.8807 34.6162 32.3233C33.2132 31.2 31.8208 30.2339 30.5718 29.4597C29.7469 28.9501 28.9925 28.5326 28.3386 28.1932C26.7267 26.5587 25.694 25.5118 25.694 25.5118L25.6826 25.4957C25.3359 25.1639 24.9277 25.34 24.5782 25.6952C24.2271 26.0487 24.0678 26.4489 24.41 26.7811C24.41 26.7811 25.4703 27.7946 27.1275 29.3817Z" fill="black"/>
<path fill-rule="evenodd" clip-rule="evenodd" d="M35.4673 20.4431C35.6518 21.1767 35.8856 22.0229 36.1957 22.9617C36.6784 24.4373 37.3261 26.1124 38.1221 27.8511C38.5197 28.7174 38.9397 29.6099 39.4122 30.4935C39.8628 31.3848 40.3728 32.264 40.8747 33.1464C41.3998 34.0159 41.9164 34.8895 42.472 35.724C43.0158 36.5642 43.5792 37.3746 44.1467 38.1472C45.2759 39.6953 46.4182 41.0856 47.4725 42.2395C48.5198 43.3962 49.482 44.31 50.1872 44.9282C50.8964 45.5464 51.3486 45.8741 51.3486 45.8741C51.3486 45.8741 51.2859 45.3256 51.1013 44.4082C50.9082 43.4956 50.5864 42.2178 50.098 40.7434C49.6169 39.2661 48.9675 37.5898 48.176 35.8511C47.7813 34.9816 47.3498 34.0951 46.8859 33.2083C46.4325 32.3146 45.931 31.4354 45.4279 30.553C44.9011 29.6835 44.3879 28.8083 43.8306 27.9738C43.2924 27.132 42.7234 26.3248 42.1604 25.5494C41.0328 24.0013 39.8901 22.6077 38.8358 21.4542C38.1702 20.7235 37.5473 20.1009 36.9974 19.5752C36.4124 18.5456 36.0714 17.9391 36.0714 17.9391L36.0567 17.9206C35.814 17.5176 35.3809 17.5755 34.9556 17.8253L34.9422 17.8309C34.5136 18.0835 34.2505 18.4302 34.4949 18.8344C34.4949 18.8344 34.8562 19.4324 35.4673 20.4431Z" fill="black"/>
<path fill-rule="evenodd" clip-rule="evenodd" d="M16.7531 36.9978C16.7531 36.9978 18.4307 37.9232 20.9641 39.3197C21.4391 39.8236 22.0053 40.3883 22.6722 40.9964C23.7167 41.9524 24.9804 42.986 26.3931 43.9984C27.0995 44.5039 27.8397 45.0151 28.6076 45.4973C29.3681 45.9956 30.1698 46.4549 30.9626 46.9255C31.77 47.3675 32.5758 47.818 33.395 48.2238C34.2036 48.6364 35.0184 49.0137 35.8168 49.3616C37.4125 50.0606 38.9515 50.6281 40.3117 51.044C41.6691 51.4655 42.8476 51.7357 43.6917 51.8918C44.537 52.0462 45.0433 52.0937 45.0433 52.0937C45.0433 52.0937 44.7508 51.6822 44.1931 51.0323C43.633 50.3928 42.8081 49.5188 41.7579 48.5689C40.7138 47.6157 39.4469 46.5788 38.0386 45.5681C37.3322 45.0569 36.592 44.5514 35.8258 44.0635C35.0636 43.5652 34.2651 43.1031 33.4736 42.6353C32.6662 42.1877 31.8592 41.7356 31.0428 41.3326C30.2371 40.9139 29.4178 40.5427 28.6194 40.1904C27.0266 39.4902 25.4863 38.9255 24.1261 38.5068C23.2617 38.241 22.4807 38.0403 21.8021 37.8858C19.3081 36.4158 17.6583 35.4441 17.6583 35.4441L17.6379 35.4325C17.2183 35.2028 16.8717 35.4743 16.6289 35.9091C16.3828 36.3394 16.3319 36.7681 16.7531 36.9978Z" fill="black"/>
<path fill-rule="evenodd" clip-rule="evenodd" d="M71.7274 39.7153C71.5196 39.8123 71.2915 39.9277 71.0401 40.0866C70.3859 40.5125 69.7088 41.1926 69.2465 41.9954C68.776 42.7913 68.5169 43.7083 68.4717 44.4793C68.4497 44.8678 68.4672 45.2117 68.5022 45.4639L68.558 45.7659L68.5812 45.8741L68.6863 45.8395L68.9821 45.7357C69.2192 45.6388 69.5304 45.4844 69.8579 45.2736C70.5146 44.8477 71.1921 44.1672 71.6524 43.3676C72.1278 42.5745 72.3897 41.6575 72.4349 40.8837C72.4496 40.5833 72.4394 40.3234 72.4162 40.0982C72.9409 39.2536 73.5002 38.3551 74.0852 37.412C75.071 35.8237 76.1139 34.1285 77.1625 32.4332C78.1996 30.738 79.2421 29.0383 80.221 27.4485C81.1918 25.8542 82.1002 24.3669 82.8783 23.0903C84.4242 20.5356 85.4541 18.8303 85.4541 18.8303L85.4659 18.8086C85.703 18.3943 85.4231 18.052 84.9876 17.8107C84.5489 17.5694 84.1171 17.5191 83.8816 17.9334C83.8816 17.9334 82.9003 19.6664 81.4317 22.2642C80.6976 23.5681 79.8491 25.0872 78.9325 26.7149C78.0269 28.3437 77.057 30.082 76.0874 31.8235C75.1252 33.5638 74.1581 35.3053 73.2542 36.937C72.7205 37.9135 72.2085 38.8418 71.7274 39.7153Z" fill="black"/>
<path fill-rule="evenodd" clip-rule="evenodd" d="M88.5067 43.6302C86.8157 44.6454 85.1292 45.6605 83.5437 46.6165C83.215 46.6048 82.8198 46.6165 82.3811 46.6728C81.8279 46.742 81.2156 46.8723 80.5952 47.0814C80.2852 47.1856 79.9723 47.301 79.6652 47.4466C79.3564 47.581 79.0553 47.737 78.7596 47.9059C78.463 48.0748 78.1762 48.2582 77.9025 48.4549C77.6259 48.6456 77.3656 48.8547 77.1187 49.0683C76.627 49.493 76.2029 49.9507 75.8697 50.3927C75.5328 50.8287 75.2843 51.2473 75.125 51.5655C74.9641 51.88 74.8896 52.0936 74.8896 52.0936C74.8896 52.0936 75.1148 52.137 75.4733 52.1527C75.8302 52.176 76.3186 52.1748 76.8743 52.1036C77.4258 52.036 78.0328 51.9029 78.6557 51.6966C78.9657 51.5924 79.2806 51.4742 79.5861 51.3326C79.8945 51.1983 80.2017 51.0438 80.4958 50.8765C80.794 50.7076 81.0808 50.5258 81.3525 50.3275C81.6307 50.1401 81.891 49.9277 82.135 49.7154C82.6296 49.2923 83.0536 48.8334 83.3877 48.3958C83.6521 48.0535 83.8582 47.7241 84.0118 47.4426C85.6445 46.5618 87.3848 45.6275 89.1222 44.6888C90.8849 43.7356 92.6456 42.7784 94.2971 41.8843C95.9485 40.9834 97.4855 40.1444 98.8046 39.4209C101.436 37.9726 103.19 37.0065 103.19 37.0065L103.212 36.9936C103.627 36.7495 103.558 36.316 103.301 35.8916C103.046 35.4673 102.698 35.2087 102.286 35.4524C102.286 35.4524 100.559 36.4676 97.9683 37.9943C96.6741 38.7597 95.1701 39.6533 93.5581 40.6138C91.9425 41.5754 90.2254 42.6034 88.5067 43.6302Z" fill="black"/>
<path fill-rule="evenodd" clip-rule="evenodd" d="M79.0171 41.1377C78.6297 41.5403 78.252 41.9321 77.8805 42.3174C77.6259 42.3793 77.3289 42.4706 77.003 42.5961C76.1374 42.9327 75.1483 43.5537 74.3515 44.3593C73.5379 45.152 72.9163 46.1281 72.5729 46.9848C72.4018 47.4147 72.2902 47.8049 72.236 48.0948C72.1969 48.2352 72.1953 48.3651 72.1777 48.4444L72.1647 48.5731L72.2902 48.5541C72.3737 48.5413 72.5057 48.5369 72.6442 48.5023C72.9399 48.4431 73.3363 48.335 73.7722 48.1628C74.6378 47.825 75.6237 47.204 76.4295 46.404C77.2356 45.6141 77.8646 44.6408 78.2052 43.7817C78.327 43.4741 78.4174 43.1881 78.4761 42.9428C78.8725 42.5715 79.2774 42.1919 79.6925 41.8034C81.0588 40.5212 82.5111 39.1509 83.9662 37.7818C85.416 36.4083 86.8671 35.0337 88.2257 33.7499C89.583 32.4548 90.8467 31.2506 91.9335 30.2166C94.0955 28.1429 95.5359 26.7594 95.5359 26.7594L95.5522 26.7421C95.8871 26.4026 95.7086 26.0028 95.3489 25.6577C94.9904 25.3123 94.5867 25.1522 94.249 25.4916C94.249 25.4916 92.8489 26.917 90.7518 29.0498C89.7016 30.1209 88.4831 31.3717 87.1771 32.7102C85.8678 34.0531 84.4783 35.4857 83.0904 36.9151C81.7041 38.3538 80.3145 39.7904 79.0171 41.1377Z" fill="black"/>
<path fill-rule="evenodd" clip-rule="evenodd" d="M97.6335 49.8886C95.8244 50.4086 93.8947 50.9628 91.9687 51.5163C90.5922 51.9176 89.2222 52.3162 87.8925 52.7043C87.5499 52.6207 87.1303 52.543 86.6623 52.4968C85.397 52.3625 83.7883 52.4662 82.2598 52.8793C81.4948 53.0788 80.7546 53.3559 80.0702 53.672C79.3858 53.9881 78.7744 54.3537 78.255 54.7205C77.7417 55.0857 77.329 55.4569 77.0516 55.7445C76.9033 55.8744 76.7994 56.0116 76.7253 56.0892L76.6153 56.2235L76.7795 56.2859C76.8846 56.316 77.041 56.384 77.2341 56.4274C77.6248 56.5384 78.1629 56.6571 78.7964 56.7174C79.4282 56.7826 80.1476 56.7954 80.8996 56.7319C81.6528 56.6728 82.4338 56.5441 83.1984 56.3405C84.7285 55.9476 86.175 55.2446 87.2032 54.5053C87.6086 54.2194 87.9467 53.929 88.2111 53.6776C89.5424 53.3603 90.914 53.0297 92.2889 52.7003C94.2385 52.2237 96.1882 51.7499 98.0153 51.3051C99.8419 50.8546 101.549 50.4388 103.011 50.0764C105.928 49.3428 107.879 48.859 107.879 48.859L107.899 48.8533C108.363 48.7234 108.415 48.2887 108.274 47.8105C108.139 47.3343 107.869 46.9964 107.406 47.1275C107.406 47.1275 105.476 47.6677 102.577 48.4821C101.132 48.8952 99.4398 49.3746 97.6335 49.8886Z" fill="black"/>
<path fill-rule="evenodd" clip-rule="evenodd" d="M18.027 61.3832C18.6413 61.5851 19.3697 61.7963 20.2003 61.9926C21.4582 62.2902 22.9195 62.5512 24.4903 62.7246C25.2757 62.8098 26.0876 62.8895 26.9137 62.9224C27.7346 62.9731 28.5725 62.9948 29.4105 62.9948C30.2472 62.9948 31.0852 62.9671 31.9089 62.918C32.7322 62.8794 33.5425 62.8082 34.3295 62.7189C35.8958 62.5428 37.3615 62.283 38.6179 61.9853C39.8758 61.6909 40.9199 61.3587 41.6528 61.0872C42.3856 60.8129 42.8085 60.609 42.8085 60.609C42.8085 60.609 42.3856 60.4099 41.6528 60.1328C40.9199 59.8626 39.8758 59.5308 38.6179 59.2359C37.3615 58.9371 35.8958 58.6769 34.3295 58.5023C33.5425 58.4127 32.7322 58.3391 31.9089 58.3016C31.0852 58.2526 30.2472 58.2264 29.4105 58.2264C28.5725 58.2264 27.7346 58.2482 26.9137 58.2988C26.0876 58.3334 25.2757 58.4114 24.4903 58.4951C22.9195 58.6713 21.4582 58.9327 20.2003 59.2287C19.3945 59.4193 18.6869 59.6245 18.0795 59.8191C17.2314 59.805 16.4227 59.789 15.6809 59.7745C12.6664 59.7298 10.6585 59.7025 10.6585 59.7025H10.6336C10.1509 59.7081 9.99445 60.1155 10.0001 60.6106C10.0046 61.1073 10.1769 61.5003 10.6568 61.4943C10.6568 61.4943 12.6664 61.4657 15.6809 61.4251C16.4077 61.4134 17.1935 61.3977 18.027 61.3832Z" fill="black"/>
<path fill-rule="evenodd" clip-rule="evenodd" d="M26.5177 80.521C27.0806 80.414 27.7328 80.2684 28.4539 80.0689C29.5583 79.7673 30.7971 79.3425 32.0782 78.8012C32.719 78.5281 33.3729 78.2409 34.0206 77.9087C34.6744 77.5942 35.3136 77.233 35.9633 76.8807C36.5919 76.5051 37.2282 76.1371 37.8323 75.7325C38.4454 75.3427 39.0272 74.9313 39.5832 74.5166C40.6994 73.6909 41.6938 72.8431 42.5114 72.0532C43.3274 71.2661 43.9682 70.5398 44.3983 70.0012C44.8281 69.4583 45.0489 69.1116 45.0489 69.1116C45.0489 69.1116 44.635 69.1305 43.9445 69.2242C43.2573 69.3227 42.2979 69.5073 41.2009 69.8134C40.101 70.1151 38.8577 70.5426 37.5777 71.0815C36.9312 71.353 36.2819 71.6462 35.6313 71.9696C34.9775 72.2857 34.3351 72.644 33.6902 72.9992C33.0584 73.3732 32.4208 73.74 31.8167 74.1414C31.2069 74.5283 30.6231 74.9426 30.0646 75.3572C28.9501 76.1805 27.9536 77.0291 27.1377 77.8194C26.5995 78.3391 26.149 78.8273 25.7713 79.2573L25.6516 79.3212C24.0017 80.2205 22.4676 81.0627 21.1497 81.7818C18.5169 83.2329 16.7664 84.2002 16.7664 84.2002L16.7444 84.2091C16.3318 84.4548 16.3978 84.8852 16.6552 85.3123C16.9123 85.737 17.2606 85.9952 17.6716 85.7499C17.6716 85.7499 19.3972 84.7347 21.9861 83.21C23.2762 82.4459 24.7814 81.5478 26.3991 80.5918L26.5177 80.521Z" fill="black"/>
<path fill-rule="evenodd" clip-rule="evenodd" d="M103.177 84.1918C103.177 84.1918 101.42 83.2273 98.7915 81.7774C97.4752 81.0555 95.937 80.2177 94.2884 79.3168C92.6385 78.4199 90.8775 77.4655 89.1148 76.5111C88.9588 76.427 88.7974 76.3406 88.6426 76.2553C88.388 75.9147 88.0678 75.529 87.6861 75.1247C87.1244 74.5311 86.4339 73.9001 85.6587 73.2936C85.2696 72.9931 84.8586 72.6887 84.4276 72.4112C84.0047 72.1196 83.5526 71.8597 83.1053 71.5927C82.6486 71.3441 82.1891 71.0916 81.7243 70.8736C81.2607 70.6467 80.7943 70.4444 80.3303 70.2655C79.4133 69.9047 78.5109 69.6288 77.7137 69.451C76.9137 69.2648 76.2118 69.1767 75.7042 69.1405C75.4569 69.1087 75.2467 69.1176 75.109 69.1087C74.9656 69.1087 74.8898 69.1116 74.8898 69.1116L74.9962 69.2978C75.0768 69.412 75.1734 69.597 75.3208 69.7933C75.6088 70.2108 76.0378 70.765 76.6008 71.3542C77.1564 71.9494 77.8437 72.5833 78.6262 73.1838C79.0128 73.4902 79.421 73.7891 79.852 74.069C80.2777 74.3622 80.727 74.6248 81.176 74.8923C81.6322 75.1432 82.0897 75.3946 82.5565 75.6142C83.0189 75.8439 83.4853 76.0401 83.9461 76.2223C84.8676 76.5875 85.7658 76.859 86.5642 77.0396C87.1126 77.1651 87.6144 77.2447 88.0357 77.2938C88.1937 77.3875 88.3428 77.4784 88.4993 77.5709C90.2163 78.5989 91.9334 79.6257 93.5466 80.5901C95.1597 81.545 96.6666 82.4402 97.9592 83.2068C100.544 84.7287 102.269 85.7442 102.269 85.7442L102.292 85.7587C102.71 85.988 103.055 85.7137 103.301 85.2821C103.545 84.8518 103.601 84.4242 103.177 84.1918Z" fill="black"/>
<path fill-rule="evenodd" clip-rule="evenodd" d="M91.922 90.9845C90.8351 89.9508 89.5702 88.7463 88.2169 87.4524C86.9549 86.2611 85.6151 84.9918 84.2708 83.7181C84.1013 83.301 83.876 82.8216 83.5937 82.3015C83.1798 81.5434 82.6486 80.7105 82.0139 79.88C81.6994 79.4669 81.3585 79.0438 80.9975 78.6412C80.6407 78.2281 80.2529 77.8368 79.8683 77.4394C79.4646 77.061 79.0666 76.6785 78.6486 76.3262C78.2388 75.9682 77.8148 75.6316 77.3935 75.3227C76.5552 74.6973 75.7099 74.17 74.9436 73.7646C74.1769 73.3528 73.4881 73.0668 72.9809 72.8894C72.7365 72.7881 72.5202 72.7362 72.3796 72.6887C72.2362 72.6513 72.1584 72.6292 72.1584 72.6292C72.1584 72.6292 72.1776 72.7073 72.2175 72.852C72.2656 72.9848 72.3197 73.1999 72.4208 73.4425C72.5976 73.942 72.8901 74.6237 73.3027 75.3802C73.7178 76.1367 74.2474 76.9701 74.8837 77.799C75.195 78.2165 75.5331 78.634 75.8956 79.0394C76.2513 79.454 76.6387 79.8454 77.0277 80.2423C77.4257 80.6236 77.8237 81.0105 78.2449 81.3616C78.6486 81.7196 79.0784 82.0518 79.4968 82.3667C80.3319 82.9905 81.1772 83.5174 81.9439 83.9248C82.4718 84.2047 82.9602 84.4255 83.3815 84.5993C84.6716 85.9261 85.956 87.2473 87.1651 88.4921C88.4728 89.8322 89.6941 91.0798 90.7402 92.1496C92.8373 94.2857 94.2342 95.7082 94.2342 95.7082L94.255 95.7255C94.5996 96.0561 95.0049 95.8812 95.3545 95.5276C95.704 95.1709 95.8682 94.7735 95.5215 94.4417C95.5215 94.4417 94.079 93.0582 91.922 90.9845Z" fill="black"/>
<path fill-rule="evenodd" clip-rule="evenodd" d="M21.084 71.6706C21.6865 71.7052 22.3827 71.7285 23.1697 71.7112C24.3853 71.6879 25.7773 71.5781 27.243 71.3629C27.9771 71.2531 28.7307 71.1321 29.488 70.966C30.2474 70.8184 31.0091 70.6209 31.7697 70.4331C32.5274 70.2195 33.2823 70.0144 34.018 69.7646C34.7537 69.5305 35.4703 69.2691 36.1575 68.9992C37.5368 68.4619 38.8005 67.8683 39.8625 67.2907C40.9258 66.716 41.793 66.1557 42.3898 65.7298C42.9854 65.3011 43.3142 65.0107 43.3142 65.0107C43.3142 65.0107 42.8815 64.9242 42.1487 64.8462C41.4174 64.7694 40.386 64.7131 39.1737 64.7392C37.9613 64.7638 36.5657 64.8719 35.0959 65.0887C34.363 65.1941 33.611 65.3212 32.8578 65.4829C32.0932 65.6289 31.3326 65.8223 30.572 66.013C29.8115 66.2237 29.0583 66.4288 28.3238 66.6758C27.5868 66.905 26.8703 67.1725 26.1826 67.4407C24.8004 67.9753 23.538 68.5705 22.4776 69.1481C21.7887 69.5189 21.1948 69.8813 20.6962 70.2106C19.3229 70.5441 18.043 70.8578 16.9068 71.1361C13.9872 71.8653 12.0404 72.3507 12.0404 72.3507L12.0139 72.3551C11.5532 72.485 11.5022 72.921 11.6412 73.3964C11.7772 73.8742 12.0461 74.2121 12.5072 74.0821C12.5072 74.0821 14.4406 73.5436 17.3411 72.7336C18.4613 72.4143 19.7295 72.0547 21.084 71.6706Z" fill="black"/>
<path fill-rule="evenodd" clip-rule="evenodd" d="M82.8668 98.1108C82.0899 96.8387 81.1815 95.3497 80.2119 93.7571C79.4281 92.4777 78.6016 91.1348 77.7722 89.7774C77.705 89.3213 77.6117 88.7924 77.4606 88.2048C77.2426 87.3353 76.9269 86.3507 76.5089 85.3456C76.2995 84.8429 76.0726 84.326 75.8111 83.8205C75.5638 83.3065 75.2742 82.807 74.9964 82.3058C74.6937 81.8148 74.3979 81.3168 74.0688 80.8491C73.7547 80.3725 73.4198 79.9232 73.083 79.4929C72.4088 78.6338 71.704 77.8713 71.0485 77.2475C70.3951 76.6237 69.7837 76.1426 69.3303 75.8209C69.1119 75.6532 68.9103 75.5389 68.7832 75.4525C68.6512 75.3728 68.5815 75.3326 68.5815 75.3326C68.5815 75.3326 68.584 75.4135 68.5856 75.5695C68.5974 75.7183 68.5974 75.9464 68.6324 76.215C68.6862 76.7652 68.8048 77.529 69.0272 78.4026C69.2411 79.2733 69.5568 80.2551 69.9751 81.2589C70.1857 81.7657 70.4126 82.2785 70.6713 82.7852C70.9141 83.2976 71.2021 83.8004 71.4861 84.3043C71.7859 84.7982 72.0784 85.2937 72.4088 85.7615C72.7159 86.2365 73.0569 86.6885 73.3901 87.1189C74.0647 87.9808 74.7666 88.7421 75.4261 89.3655C75.8694 89.7918 76.2951 90.1426 76.6666 90.4313C77.4345 91.8165 78.1979 93.1867 78.9246 94.489C79.8363 96.1151 80.6873 97.6342 81.4214 98.9385C82.8888 101.535 83.8672 103.266 83.8672 103.266L83.877 103.289C84.1259 103.696 84.5618 103.63 84.9949 103.379C85.423 103.125 85.6849 102.778 85.4421 102.374C85.4421 102.374 84.4111 100.666 82.8668 98.1108Z" fill="black"/>
<path fill-rule="evenodd" clip-rule="evenodd" d="M109.339 59.7024C109.339 59.7024 107.329 59.7297 104.321 59.7744C102.811 59.8033 101.053 59.8323 99.1674 59.8685C97.2883 59.9059 95.2799 59.9477 93.2744 59.9884C92.3139 60.0129 91.3586 60.0346 90.4155 60.0575C90.0631 59.8757 89.624 59.6763 89.1148 59.4989C87.7925 59.0151 86.0257 58.6857 84.2634 58.6985C83.3786 58.6973 82.4979 58.7826 81.6673 58.9197C80.8423 59.0625 80.0716 59.2721 79.4088 59.5089C78.7464 59.7442 78.1936 60.0129 77.8091 60.2321C77.6172 60.329 77.4652 60.4416 77.3597 60.5024L77.2017 60.6089L77.3597 60.7175C77.4652 60.7811 77.6172 60.8921 77.8091 60.9862C78.1981 61.2054 78.7464 61.4741 79.4088 61.7097C80.0732 61.945 80.8456 62.1514 81.6717 62.2929C82.4979 62.4333 83.3815 62.5109 84.2663 62.5109C86.0302 62.521 87.7941 62.192 89.1176 61.7053C89.6228 61.5275 90.0587 61.3281 90.4094 61.1495C91.3557 61.168 92.3122 61.1925 93.2744 61.2142C95.2799 61.2533 97.2883 61.2951 99.1691 61.3341C101.053 61.3675 102.811 61.3976 104.321 61.4238C107.329 61.4656 109.34 61.4946 109.34 61.4946H109.365C109.846 61.4885 110.006 61.0799 110 60.5876C109.994 60.0921 109.82 59.6952 109.339 59.7024Z" fill="black"/>
<path fill-rule="evenodd" clip-rule="evenodd" d="M107.894 72.3609C107.894 72.3609 105.944 71.8726 103.028 71.1463C101.559 70.7867 99.858 70.368 98.0297 69.9176C96.2014 69.4756 94.2489 69.0006 92.2964 68.53C91.7798 68.4029 91.2609 68.2802 90.7402 68.1556C90.4209 67.8829 90.022 67.5768 89.5523 67.2663C88.2756 66.4213 86.4926 65.6012 84.6146 65.1146C83.6801 64.8721 82.722 64.6903 81.8062 64.6062C80.8921 64.5109 80.0158 64.4996 79.25 64.5487C78.4833 64.5933 77.8295 64.7031 77.3598 64.8085C77.1276 64.8532 76.9357 64.9183 76.8114 64.9501L76.6155 65.0108L76.7544 65.1637C76.8448 65.2505 76.9781 65.4034 77.1565 65.5538C77.506 65.8783 78.0226 66.2986 78.6601 66.7161C79.3021 67.1348 80.0598 67.5579 80.9051 67.9275C81.7418 68.3072 82.6633 68.6177 83.5954 68.8719C85.4656 69.3762 87.4271 69.5508 88.9613 69.4454C89.523 69.4092 90.0265 69.3428 90.44 69.2648C90.9488 69.4136 91.4625 69.5596 91.9774 69.7096C93.9067 70.2643 95.834 70.8185 97.6468 71.3357C99.4559 71.8497 101.144 72.3291 102.591 72.7406C105.493 73.5506 107.426 74.0923 107.426 74.0923L107.449 74.0996C107.912 74.215 108.176 73.8627 108.3 73.3845C108.423 72.901 108.36 72.4779 107.894 72.3609Z" fill="black"/>
<path fill-rule="evenodd" clip-rule="evenodd" d="M72.2568 102.666C71.8413 101.238 71.3574 99.5692 70.8368 97.7842C70.4868 96.6046 70.1243 95.3715 69.7601 94.1235C69.8257 93.624 69.886 93.0175 69.9063 92.3358C69.9634 90.4575 69.7018 88.0456 69.0553 85.7309C68.8973 85.1518 68.7184 84.5799 68.5168 84.0196C68.3282 83.461 68.1147 82.9152 67.8862 82.394C67.4344 81.3499 66.9301 80.3955 66.4327 79.5995C65.9365 78.7996 65.4424 78.1512 65.0651 77.7108C64.6863 77.266 64.4256 77.0235 64.4256 77.0235C64.4256 77.0235 64.3294 77.3613 64.2239 77.9316C64.1217 78.5036 64.0251 79.3051 63.9991 80.2406C63.9709 81.1793 64.019 82.2552 64.1612 83.3813C64.2268 83.946 64.3192 84.5236 64.4394 85.1043C64.5519 85.6847 64.6863 86.2723 64.8443 86.8486C65.4599 89.1677 66.453 91.3886 67.4621 92.9845C67.8133 93.5504 68.1612 94.0326 68.4683 94.4284C68.7873 95.7021 69.1005 96.961 69.4 98.1639C69.855 99.9678 70.2807 101.651 70.6433 103.093C71.3851 105.978 71.8751 107.903 71.8751 107.903L71.8825 107.927C72.0124 108.382 72.454 108.43 72.9355 108.296C73.4183 108.161 73.7617 107.894 73.6301 107.438C73.6301 107.438 73.0814 105.53 72.2568 102.666Z" fill="black"/>
<path fill-rule="evenodd" clip-rule="evenodd" d="M35.1413 86.9557C36.0961 86.4099 37.1537 85.7125 38.2112 84.898C38.7392 84.4878 39.2805 84.0591 39.7983 83.5953C40.3307 83.1449 40.8379 82.6494 41.3455 82.1615C41.8417 81.6532 42.3403 81.1536 42.7978 80.6296C43.2691 80.1124 43.7062 79.5855 44.1172 79.0598C44.9422 78.0129 45.6485 76.97 46.203 76.0257C46.7558 75.0886 47.1595 74.244 47.4169 73.6302C47.676 73.0121 47.7885 72.6292 47.7885 72.6292C47.7885 72.6292 47.4039 72.7434 46.7778 72.9964C46.1549 73.2534 45.3035 73.6515 44.3486 74.1989C43.3946 74.7435 42.3403 75.4397 41.2771 76.2553C40.7459 76.664 40.2089 77.0943 39.6887 77.5564C39.1559 78.0113 38.6471 78.5036 38.1379 78.9919C37.6437 79.4942 37.1423 79.9937 36.6844 80.5182C36.2106 81.031 35.7776 81.5623 35.3649 82.0863C34.5343 83.1304 33.8336 84.1745 33.278 85.1172C32.9032 85.7543 32.6038 86.3391 32.3667 86.8459C32.1561 87.0421 31.9365 87.2501 31.7348 87.4451C30.3775 88.7362 29.1138 89.9419 28.0286 90.9732C25.8683 93.0481 24.4274 94.4288 24.4274 94.4288L24.4071 94.4429C24.0751 94.7851 24.2535 95.1837 24.6116 95.5304C24.9684 95.8755 25.3754 96.036 25.7102 95.6949C25.7102 95.6949 27.1083 94.2728 29.2116 92.1383C30.2561 91.0697 31.4757 89.8209 32.7818 88.4836C32.981 88.2797 33.1916 88.0645 33.392 87.8554C33.9008 87.6213 34.4948 87.3253 35.1413 86.9557Z" fill="black"/>
<path fill-rule="evenodd" clip-rule="evenodd" d="M47.9567 85.6171C48.6297 84.4716 49.2147 83.2803 49.697 82.1236C50.1785 80.9657 50.5529 79.844 50.8075 78.8446C51.0662 77.8451 51.2124 76.9732 51.2813 76.3462C51.3485 75.7151 51.3485 75.3342 51.3485 75.3342C51.3485 75.3342 51.0148 75.5261 50.4942 75.8973C49.9797 76.2726 49.2847 76.83 48.5388 77.5507C47.7901 78.2682 46.9929 79.149 46.2205 80.1384C45.4453 81.129 44.6908 82.2278 44.0236 83.3729C42.6752 85.6601 41.6718 88.1412 41.1659 90.1426C40.9858 90.8472 40.8673 91.4815 40.7825 92.0156C40.42 92.606 40.0643 93.188 39.7148 93.7571C38.742 95.3497 37.8368 96.8387 37.0616 98.1108C35.5185 100.666 34.4874 102.374 34.4874 102.374L34.4756 102.392C34.2418 102.807 34.5168 103.149 34.9555 103.39C35.3914 103.63 35.8256 103.682 36.0595 103.266C36.0595 103.266 37.0396 101.535 38.5065 98.9385C39.2394 97.6342 40.088 96.1167 41.0049 94.489C41.3251 93.9087 41.6588 93.3138 41.992 92.7142C42.4234 92.3723 42.9179 91.9508 43.4475 91.4436C44.9495 90.0082 46.6271 87.9128 47.9567 85.6171Z" fill="black"/>
<path fill-rule="evenodd" clip-rule="evenodd" d="M55.5054 77.0438C55.5054 77.0438 55.2422 77.3036 54.8454 77.7758C54.4552 78.2496 53.9419 78.9381 53.4241 79.7932C52.9002 80.6454 52.3694 81.6606 51.8985 82.7738C51.4247 83.8871 50.9974 85.0913 50.6642 86.326C49.9839 88.7838 49.6869 91.3458 49.7325 93.3398C49.7456 94.0557 49.7997 94.6912 49.8641 95.2141C49.6022 96.0993 49.352 96.9688 49.1003 97.8074C48.5801 99.5967 48.0969 101.263 47.6818 102.694C46.8614 105.555 46.3114 107.465 46.3114 107.465L46.3041 107.485C46.1868 107.946 46.5453 108.206 47.028 108.33C47.5164 108.45 47.9466 108.389 48.0647 107.929C48.0647 107.929 48.5564 106.004 49.2979 103.12C49.6592 101.678 50.082 99.9941 50.5354 98.1903C50.7518 97.3284 50.9754 96.4371 51.1995 95.5374C51.5152 95.1159 51.8749 94.6031 52.2407 94.0039C53.2909 92.3014 54.335 89.9361 54.9888 87.471C55.3281 86.2395 55.5713 84.9831 55.7233 83.7845C55.8814 82.5888 55.9339 81.4482 55.9209 80.4532C55.9001 79.461 55.8068 78.6091 55.7099 78.0054C55.6048 77.3989 55.5054 77.0438 55.5054 77.0438Z" fill="black"/>
<path fill-rule="evenodd" clip-rule="evenodd" d="M61.2519 80.7217C60.9725 79.789 60.6657 79.012 60.4123 78.469C60.1594 77.926 59.9707 77.6156 59.9707 77.6156C59.9707 77.6156 59.7821 77.926 59.5259 78.469C59.2745 79.012 58.9645 79.789 58.6879 80.7217C58.4113 81.6532 58.1689 82.7407 58.0048 83.9071C57.841 85.0726 57.7489 86.3162 57.7489 87.5577C57.7359 90.0429 58.1205 92.528 58.6822 94.3938C58.8794 95.0594 59.0961 95.643 59.2949 96.1224C59.2701 97.2067 59.2468 98.2782 59.2277 99.3078C59.1927 101.168 59.1633 102.903 59.1356 104.392C59.09 107.367 59.0611 109.351 59.0611 109.351V109.376C59.0713 109.851 59.4807 110.008 59.9826 110C60.4857 109.996 60.8865 109.828 60.8804 109.351C60.8804 109.351 60.847 107.367 60.8059 104.392C60.7753 102.903 60.7476 101.168 60.7122 99.3078C60.6873 98.2782 60.6682 97.2067 60.6421 96.1224C60.8425 95.643 61.0588 95.0594 61.2564 94.3938C61.8194 92.528 62.2011 90.0429 62.1881 87.5577C62.1942 86.3162 62.0944 85.0726 61.9351 83.9071C61.7713 82.7407 61.5285 81.6532 61.2519 80.7217Z" fill="black"/>
<path fill-rule="evenodd" clip-rule="evenodd" d="M64.3792 44.0953L64.4346 44.1805L64.5266 44.1343L64.7682 43.9984C64.9629 43.8801 65.2114 43.704 65.4542 43.4743C65.9427 43.0194 66.3712 42.355 66.5643 41.6258C66.7643 40.9027 66.7309 40.114 66.5366 39.4801C66.4531 39.2231 66.3578 39.0019 66.2657 38.8185C66.6458 37.5436 67.0731 36.1198 67.5277 34.5991C68.0606 32.817 68.628 30.9098 69.1922 29.0066C69.754 27.1019 70.3158 25.1959 70.8376 23.4093C71.3574 21.6232 71.8459 19.9541 72.2614 18.5227C73.083 15.6607 73.6301 13.7503 73.6301 13.7503L73.6362 13.7274C73.7548 13.2681 73.3992 13.0066 72.9103 12.888C72.4219 12.7669 71.9933 12.8248 71.8748 13.2882C71.8748 13.2882 71.3847 15.2118 70.6433 18.0952C70.2807 19.5394 69.8579 21.2246 69.4016 23.0309C68.9556 24.8375 68.4728 26.7624 67.9946 28.6901C67.5237 30.621 67.0483 32.5487 66.6022 34.3554C66.2339 35.889 65.884 37.3284 65.5683 38.6154C65.3927 38.7292 65.1862 38.8793 64.9804 39.0715C64.4916 39.528 64.0647 40.1908 63.8761 40.9196C63.6797 41.6447 63.7119 42.433 63.9054 43.0657C64.0015 43.3862 64.1274 43.6593 64.2329 43.86L64.3792 44.0953Z" fill="black"/>
<path fill-rule="evenodd" clip-rule="evenodd" d="M62.3049 20.6267C62.1118 18.6572 61.8222 16.8188 61.4947 15.2478C61.1643 13.6736 60.7973 12.3609 60.4974 11.4427C60.1915 10.5241 59.9707 10 59.9707 10C59.9707 10 59.7438 10.5241 59.4427 11.4427C59.1397 12.3609 58.7714 13.6736 58.4435 15.2478C58.1147 16.8188 57.8296 18.6572 57.6377 20.6267C57.544 21.6085 57.458 22.6252 57.4198 23.6576C57.3599 24.6917 57.3558 25.7414 57.3407 26.7899C57.3558 27.8384 57.3643 28.8882 57.4214 29.9218C57.4666 30.9546 57.5456 31.9726 57.6438 32.9559C57.8369 34.9226 58.1265 36.7579 58.4541 38.332C58.7771 39.9074 59.1441 41.2186 59.4456 42.1372C59.7511 43.0554 59.9707 43.581 59.9707 43.581C59.9707 43.581 60.1915 43.0554 60.4942 42.1372C60.7928 41.2186 61.1598 39.9074 61.489 38.332C61.8165 36.7579 62.1017 34.9226 62.2935 32.9559C62.3929 31.9726 62.4715 30.9546 62.5172 29.9218C62.5754 28.8882 62.5844 27.8384 62.6007 26.7899C62.5844 25.7414 62.5815 24.6917 62.5184 23.6576C62.4834 22.6252 62.3958 21.6085 62.3049 20.6267Z" fill="black"/>
<path fill-rule="evenodd" clip-rule="evenodd" d="M47.9598 26.111C48.1643 27.0947 48.4291 28.0837 48.6837 29.0715C48.9672 30.0549 49.2394 31.0398 49.5628 31.9959C49.8639 32.9559 50.2032 33.889 50.5499 34.7871C51.2387 36.5877 51.985 38.2399 52.6983 39.6359C53.4194 41.0311 54.1058 42.1717 54.6321 42.956C55.1572 43.7431 55.5055 44.1807 55.5055 44.1807C55.5055 44.1807 55.5903 43.6289 55.6457 42.6873C55.697 41.7486 55.7174 40.423 55.6298 38.8609C55.5479 37.2968 55.356 35.4973 55.0415 33.5998C54.8867 32.6482 54.7038 31.6749 54.483 30.6932C54.2753 29.7082 54.0133 28.7176 53.762 27.7286C53.478 26.7436 53.2063 25.7603 52.8886 24.8059C52.5887 23.8442 52.2437 22.9095 51.8999 22.0102C51.2139 20.2124 50.4696 18.5602 49.7486 17.1638C49.0287 15.769 48.3383 14.63 47.818 13.8425C47.2885 13.0586 46.9345 12.6227 46.9345 12.6227C46.9345 12.6227 46.8538 13.1741 46.7939 14.1128C46.7397 15.0543 46.7165 16.3799 46.8025 17.9425C46.8876 19.5062 47.0779 21.3056 47.3936 23.2015C47.5557 24.1531 47.7329 25.1308 47.9598 26.111Z" fill="black"/>
</svg>
