<svg width="120" height="120" viewBox="0 0 120 120" fill="none" xmlns="http://www.w3.org/2000/svg">
<path d="M59.585 15.5348C65.4539 18.9247 71.3228 22.3112 77.1952 25.7047C76.8809 26.026 21.2361 58.16 20.4698 58.4637C20.4522 58.3295 20.4204 58.2024 20.4204 58.0788C20.4204 51.5885 20.4204 45.0946 20.4062 38.6042C20.4062 38.1981 20.5934 38.0251 20.9006 37.8485C25.7984 35.0271 30.6927 32.2021 35.5869 29.3736C43.4086 24.8572 51.2302 20.3408 59.0518 15.8243C59.2178 15.729 59.3908 15.6407 59.585 15.5312V15.5348Z" fill="black"/>
<path d="M79.1727 94.242V51.2636C79.3457 51.3448 79.4869 51.3978 79.6141 51.4684C85.8396 55.0596 92.0616 58.6579 98.2942 62.2386C98.6297 62.4293 98.7356 62.6447 98.7356 63.0225C98.725 76.9991 98.7285 90.9756 98.725 104.952C98.725 105.1 98.7109 105.252 98.6968 105.514C92.1464 101.732 85.663 97.9886 79.1727 94.242Z" fill="black"/>
<path d="M20.4169 105.531V104.829C20.4169 98.4724 20.4204 92.1162 20.4062 85.76C20.4062 85.3433 20.5263 85.0997 20.8971 84.8878C33.6059 77.564 46.3042 70.2297 59.0095 62.8954C59.1578 62.8106 59.3131 62.733 59.4685 62.6517C59.6027 63.1355 59.6627 81.2224 59.5391 82.9845C46.5619 90.4636 33.553 97.9603 20.4169 105.531Z" fill="black"/>
<path d="M98.7285 58.3437C86.8637 51.4966 75.1118 44.7167 63.2999 37.8979C63.4906 37.7744 63.6212 37.6755 63.766 37.5907C69.2782 34.3985 74.794 31.2098 80.3027 28.0106C80.6487 27.8093 80.8994 27.8022 81.249 28.007C86.906 31.2981 92.5736 34.5751 98.2412 37.845C98.5732 38.0357 98.7391 38.2369 98.7356 38.6572C98.7179 45.031 98.725 51.4084 98.725 57.7822V58.3437H98.7285Z" fill="black"/>
<path d="M22.3767 61.4582C28.8988 57.6939 35.368 53.9614 41.8831 50.2042C47.187 53.2622 52.4944 56.3273 57.8654 59.4277C57.6641 59.5619 57.5334 59.6608 57.3922 59.742C51.1984 63.3121 45.0047 66.8751 38.818 70.4557C38.4896 70.6464 38.253 70.6499 37.9211 70.4592C32.8961 67.5495 27.8606 64.6539 22.8322 61.7513C22.7015 61.6736 22.5744 61.5853 22.3802 61.4582H22.3767Z" fill="black"/>
</svg>
