<svg width="121" height="120" viewBox="0 0 121 120" fill="none" xmlns="http://www.w3.org/2000/svg">
<path d="M71.851 57.4674V18.337C63.6989 18.337 52.8293 25.4022 52.8293 37.9022C52.8293 50.4022 63.1554 57.4674 71.851 57.4674Z" fill="black"/>
<path d="M89.7858 51.7609V24.0435C83.9628 24.0435 76.1989 29.048 76.1989 37.9022C76.1989 46.7563 83.5746 51.7609 89.7858 51.7609Z" fill="black"/>
<path d="M48.4815 64.8043V11C37.3014 11 22.3945 20.7147 22.3945 37.9022C22.3945 55.0897 36.556 64.8043 48.4815 64.8043Z" fill="black"/>
<path d="M48.4815 103.663V64.5326C56.6337 64.5326 67.5032 71.5978 67.5032 84.0978C67.5032 96.5978 57.1771 103.663 48.4815 103.663Z" fill="black"/>
<path d="M30.5467 97.9565V70.2391C36.3697 70.2391 44.1337 75.2437 44.1337 84.0978C44.1337 92.952 36.7579 97.9565 30.5467 97.9565Z" fill="black"/>
<path d="M71.851 111V57.1956C83.0312 57.1956 97.938 66.9103 97.938 84.0978C97.938 101.285 83.7765 111 71.851 111Z" fill="black"/>
</svg>
