<svg width="65" height="65" viewBox="0 0 65 65" fill="none" xmlns="http://www.w3.org/2000/svg">
<path d="M59.6576 49.9108C59.5917 50.2501 59.5579 50.5995 59.4567 50.9287C58.8304 52.9595 57.463 54.2003 55.3748 54.5632C52.9523 54.9853 50.6125 53.6331 49.7955 51.3372C49.1422 49.5039 49.3532 47.7652 50.6514 46.2492C51.5174 45.238 52.6417 44.6674 53.9618 44.4952C55.3376 44.3146 56.5818 44.659 57.674 45.5031C58.8472 46.4079 59.4854 47.62 59.6255 49.0937C59.6305 49.1494 59.6474 49.2051 59.6576 49.2591V49.9108Z" fill="black"/>
<path d="M59.6576 49.9108C59.5917 50.2501 59.5579 50.5995 59.4567 50.9287C58.8304 52.9595 57.463 54.2003 55.3748 54.5632C52.9523 54.9853 50.6125 53.6331 49.7955 51.3372C49.1422 49.5039 49.3532 47.7652 50.6514 46.2492C51.5174 45.238 52.6417 44.6674 53.9618 44.4952C55.3376 44.3146 56.5818 44.659 57.674 45.5031C58.8472 46.4079 59.4854 47.62 59.6255 49.0937C59.6305 49.1494 59.6474 49.2051 59.6576 49.2591V49.9108Z" fill="black" fill-opacity="0.2"/>
<path d="M26.5162 54.6375C20.4069 54.6375 14.2975 54.6375 8.18649 54.6375C7.2749 54.6375 6.56251 54.0872 6.37006 53.2279C6.3363 53.0743 6.32617 52.9106 6.32617 52.7519C6.32448 45.2262 6.32279 37.7022 6.32617 30.1765C6.32617 29.216 6.65704 28.3702 7.36099 27.7034C8.74019 26.3951 10.1312 25.1003 11.5205 23.8022C12.9352 22.4803 14.3515 21.1619 15.7679 19.8435C18.2528 17.5274 20.7377 15.2113 23.2227 12.8952C23.9283 12.2368 24.6339 11.5784 25.3413 10.9234C26.0435 10.2735 27.0733 10.2718 27.7739 10.9251C29.0585 12.1254 30.3381 13.3307 31.6211 14.5343C34.1786 16.9315 36.7378 19.3286 39.2953 21.7258C41.2316 23.5405 43.1713 25.3552 45.1042 27.175C45.4941 27.5414 45.9162 27.8756 46.193 28.3517C46.5087 28.8969 46.6792 29.4793 46.7028 30.1073C46.7045 30.158 46.7045 30.2103 46.7045 30.2609C46.7045 37.7697 46.7045 45.2768 46.7045 52.7856C46.7045 53.4457 46.4446 53.9673 45.8959 54.3404C45.6208 54.5278 45.3135 54.624 44.981 54.6392C44.9067 54.6426 44.8324 54.6409 44.7581 54.6409C38.6775 54.6409 32.5951 54.6409 26.5145 54.6409L26.5162 54.6375ZM38.2031 46.131C38.2065 46.0736 38.2132 46.023 38.2132 45.974C38.2132 41.487 38.2132 36.9999 38.2099 32.5112C38.2099 32.4319 38.1677 32.3323 38.1103 32.2783C37.0569 31.2806 36.0001 30.2879 34.9433 29.297C32.2862 26.8053 29.6291 24.3137 26.972 21.822C26.8353 21.6937 26.6968 21.5688 26.555 21.4388C26.0536 21.9064 25.5641 22.3622 25.0779 22.818C21.7185 25.9697 18.3575 29.1215 15.0015 32.2783C14.9424 32.334 14.9052 32.4454 14.9052 32.5298C14.9002 36.9999 14.9019 41.4701 14.9019 45.9403C14.9019 46.0011 14.9019 46.0618 14.9019 46.131H38.2031Z" fill="black"/>
<path d="M26.5162 54.6375C20.4069 54.6375 14.2975 54.6375 8.18649 54.6375C7.2749 54.6375 6.56251 54.0872 6.37006 53.2279C6.3363 53.0743 6.32617 52.9106 6.32617 52.7519C6.32448 45.2262 6.32279 37.7022 6.32617 30.1765C6.32617 29.216 6.65704 28.3702 7.36099 27.7034C8.74019 26.3951 10.1312 25.1003 11.5205 23.8022C12.9352 22.4803 14.3515 21.1619 15.7679 19.8435C18.2528 17.5274 20.7377 15.2113 23.2227 12.8952C23.9283 12.2368 24.6339 11.5784 25.3413 10.9234C26.0435 10.2735 27.0733 10.2718 27.7739 10.9251C29.0585 12.1254 30.3381 13.3307 31.6211 14.5343C34.1786 16.9315 36.7378 19.3286 39.2953 21.7258C41.2316 23.5405 43.1713 25.3552 45.1042 27.175C45.4941 27.5414 45.9162 27.8756 46.193 28.3517C46.5087 28.8969 46.6792 29.4793 46.7028 30.1073C46.7045 30.158 46.7045 30.2103 46.7045 30.2609C46.7045 37.7697 46.7045 45.2768 46.7045 52.7856C46.7045 53.4457 46.4446 53.9673 45.8959 54.3404C45.6208 54.5278 45.3135 54.624 44.981 54.6392C44.9067 54.6426 44.8324 54.6409 44.7581 54.6409C38.6775 54.6409 32.5951 54.6409 26.5145 54.6409L26.5162 54.6375ZM38.2031 46.131C38.2065 46.0736 38.2132 46.023 38.2132 45.974C38.2132 41.487 38.2132 36.9999 38.2099 32.5112C38.2099 32.4319 38.1677 32.3323 38.1103 32.2783C37.0569 31.2806 36.0001 30.2879 34.9433 29.297C32.2862 26.8053 29.6291 24.3137 26.972 21.822C26.8353 21.6937 26.6968 21.5688 26.555 21.4388C26.0536 21.9064 25.5641 22.3622 25.0779 22.818C21.7185 25.9697 18.3575 29.1215 15.0015 32.2783C14.9424 32.334 14.9052 32.4454 14.9052 32.5298C14.9002 36.9999 14.9019 41.4701 14.9019 45.9403C14.9019 46.0011 14.9019 46.0618 14.9019 46.131H38.2031Z" fill="black" fill-opacity="0.2"/>
</svg>
